# xmcd
#
# Track frame offsets: 
#        150
#        22491
#        45965
#        65569
#        83743
#        103117
#        122169
#        143361
#        161258
#
# Disc length: 2375 seconds
#
# Revision: 0
# Processed by: cddbd v1.5.2PL0 Copyright (c) Steve Scherf et al.
# Submitted via: ExactAudioCopy v1.3
#
DISCID=6f094509
DTITLE=Buster James - So Far So Good...
DYEAR=2018
DGENRE=Blues
TTITLE0=Holy Man
TTITLE1=Here For The Money
TTITLE2=Good Times
TTITLE3=Down All The Days
TTITLE4=See Me Through
TTITLE5=I'm On Fire
TTITLE6=Jesus Just Left Chicago
TTITLE7=Burning Bridges
TTITLE8=Down All The Days (Alternate Version)
EXTD=
EXTT0=
EXTT1=
EXTT2=
EXTT3=
EXTT4=
EXTT5=
EXTT6=
EXTT7=
EXTT8=
PLAYORDER=
